<?xml version="1.0" encoding="UTF-8"?>
<svg width="100" height="100" version="1.1" viewBox="0 0 100 100" xmlns="http://www.w3.org/2000/svg">
 <rect width="100" height="100" fill="#0c428d"/>
 <path d="m93.202 66.386c-2.1114 0.83619-4.1667 1.3048-5.98 1.7171-0.4581 0.10571-0.90952 0.20667-1.3476 0.31333 0.11714-0.48476 0.23333-0.98667 0.30381-1.5038 0.32762-2.3371 0.3-4.6857 0.24952-6.6952-0.01143-0.46-0.02762-0.9819-0.13429-1.5038-0.19524-0.9619-0.87333-1.3057-1.3905-1.3057-0.26762 0-0.67524 0.0819-1.1105 0.47048-0.10381 0.09524-0.20667 0.19333-0.31143 0.28762 0.08952-2.0267 0.32762-3.4324 1.5552-5.2838-0.16857 0.04-0.33905 0.06095-0.50571 0.06095-0.46952 0.0029-0.91619-0.13905-1.301-0.42762-0.49524-0.36571-0.83143-0.93143-0.83333-1.4-0.0057-1.0171 0.40095-1.6295 1.2514-1.879 1.0552-0.31143 1.7257 0.29905 2.0905 0.69048-0.05905-0.5019-0.52095-1.5724-1.4629-1.8124-0.1219-0.03238-0.25905-0.06571-0.41714-0.1-1.2181-0.27524-3.4905-0.78286-5.1476-3.0048-1.8486-2.4771-0.73905-8.3771-0.72762-8.4381l0.0086-0.06381 0.06286 0.02191c0.04952 0.01333 4.9952 1.5648 7.2457 3.7276 0.15048 0.13905 0.28381 0.29143 0.40476 0.45048 1.0152-2.3552-0.71527-4.3667-1.2753-4.7495-0.36286-0.24952-0.71048-0.2-0.93619-0.11524-1.1686 0.43905-2.12 0.49143-2.7562 0.14667-0.51238-0.27714-0.88095-0.77048-1.0086-1.3581-0.11905-0.55143-0.01143-1.12 0.28762-1.519 0.34572-0.45524 0.7619-0.70381 1.2429-0.72857 0.66381-0.03524 1.2895 0.34952 1.74 0.71905-0.82286-0.84762-1.9467-0.95619-3.22-1.0819-1.2781-0.1219-2.7267-0.2619-4.2238-1.1514-2.7933-1.6667-4.2838-6.0581-4.2981-6.101l-0.01619-0.04286 0.04-0.02571c0.01143-0.0067 0.94476-0.58095 2.8029-0.83714-0.96286-0.29048-5.4924-3.5333-5.0571-9.1457l0.0057-0.05714 0.05333 0.0029c3.401 0.04762 5.8667 0.82857 7.3305 2.3333 0.58 0.59714 0.8981 1.2124 1.0695 1.7105-0.10286-1.639-0.04381-3.2152 0.41714-4.0686l0.02095-0.04095 0.04476 0.01238c1.6029 0.49619 3.9524 1.4362 5.8476 3.8114 2.5324 3.1648 2.5133 6.6781-0.04952 10.749 0.16857 0.30762 0.31238 0.60571 0.42286 0.89428 0.74476 1.9724 1.3733 4.2305 1.6819 5.4038-0.11619-1.6267 0.11048-3.6095 0.57428-4.8019h-0.0419c-0.81143 0.0038-1.4743-0.64952-1.4771-1.4571-0.0076-0.80952 0.64762-1.4714 1.4571-1.4743 0.47524-9.53e-4 1.0819 0.51048 1.359 0.89428 0.58762-0.78476 0.57905-1.3019 0.54952-2.0571-0.01524-0.39048 3.3781 6.0857 0.9219 10.622-1.6686 3.0781-1.141 4.3029-0.88381 4.6067 0.0038-0.0076 0.27143-1.6048 2.0362-1.8962 1.4171-0.23143 2.7467 0.79619 2.8267 1.9229 0.10095 1.4086-0.66571 2.4505-1.6514 3.2581-0.74857 0.61048-0.6781 1.18-0.50762 1.879 3.039-1.6124 5.759-5.6248 5.7895-5.6371 0 0-0.42 4.9238-0.66952 7.9886-0.22572 2.7448-1.6171 7.3962-5.8105 9.8629 4.0962-1.0419 7.9695 0.05048 8.0105 0.06095l0.05143 0.01714-0.01238 0.05333c-0.01524 0.05524-1.4095 5.5838-5.1914 7.0762zm0.22286-28.374-0.26952-1.4038 1.7895 0.84952 1.4724-1.4676 0.27048 1.4019-1.4695 1.4648zm-0.90952-3.12-0.39524-1.6905 2.2124 0.94381 1.7124-1.8495 0.39524 1.6857-1.7124 1.8457zm-0.94286-3.3114-0.40381-1.9705 2.5324 1.1676 2.0467-2.0838 0.4 1.9657-2.0419 2.08zm1.4438-5.1514c0.50381 0 0.91143 0.40572 0.91143 0.91333 0 0.50095-0.40762 0.90667-0.91143 0.90667-0.50476 0-0.91143-0.40571-0.91143-0.90667 0-0.50762 0.40667-0.91333 0.91143-0.91333zm-2.9905-2.321-0.59714-1.7505 2.4467 0.77048 1.621-2.1419 0.59714 1.7457-1.62 2.1352zm-1.7238-3.8343-0.80952-2.0924 3.001 0.81333 1.8638-2.6705 0.80952 2.0867-1.8619 2.6686zm-1.8-4.0695-0.86857-2.4543 3.4505 1.0419 2.2476-3.0286 0.86476 2.441-2.2419 3.0305zm-24.915 63.45c-0.90381 0.26095-1.7695 0.50667-2.6343 0.57048 0.01143-0.22476 0.04381-0.45619 0.10095-0.69333 0.76952-3.2714 2.2829-4.4543 3.8857-5.7095 0.44952-0.34952 0.91714-0.71238 1.3686-1.1286l0.06571-0.05714 0.02667 0.08286c0.73905 2.3181 0.92476 4.1514 0.82952 5.5743-1.06 0.51238-2.1924 0.94667-3.3952 1.2914zm-25.96-7.0181 0.06571 0.05714c0.45143 0.41619 0.91524 0.77905 1.3676 1.1286 1.6 1.2552 3.1162 2.4381 3.8876 5.7095 0.05524 0.23714 0.08857 0.46857 0.1 0.69333-0.86762-0.06381-1.7305-0.30952-2.6362-0.57048l-0.24762-0.06952c-1.2019-0.34476-2.3352-0.77905-3.3933-1.2914-0.09524-1.4229 0.08952-3.2562 0.83048-5.5743zm35.75-27.401c-1.0467 1.3038-3.141 3.2057-4.181 4.5143-0.26476 0.33524-0.29524 0.32476-0.59905 0.02191-0.97429-0.9781-1.1295-0.79238-2.4933-0.79524-3.2181-0.0038-6.2029 0.01619-9.421-0.0038-0.83048-0.0038-1.1362 0.4781-1.0981 1.1838 0.26 4.9667 0.42381 9.34 0.69428 14.301 0.18381 3.3829 0.24572 6.7648 0.42762 10.144 0.05429 0.96857 0.0781 1.9333 0.18095 2.8924 0.0981 0.94857 0.38286 1.8638 0.97524 2.62 0.48476 0.61524 1.2314 0.82476 1.9962 0.91428 1.46 0.17048 2.8305-0.26 4.2038-0.65333 1.7781-0.50667 3.48-1.2124 5.0619-2.1724 2.6971-1.6314 5.1638-3.5562 7.3286-5.8629 1.721-1.8324 3.3343-3.7495 4.779-5.8067 0-9.52e-4 0.0038-0.0038 0.0067-0.01048l0.03238 0.04286c0.02095 0.03143 0.0381 0.05714 0.05714 0.08476l0.0019 0.0038 0.0067 0.0076c0.02381 0.03905 0.04381 0.06762 0.05714 0.08571l0.05524 0.09524c0.02191 0.04 0.04572 0.07714 0.06952 0.11714 0.0086 0.02095 0.01429 0.03905 0.02667 0.05619 0.0086 0.02667 0.02 0.04667 0.02952 0.07048l0.04095 0.08667 0.02 0.04 0.02476 0.06286 0.02476 0.06 0.04952 0.12571c0.06476 0.18 0.16 0.34667 0.2981 0.51048 0.13333 0.16762 0.29905 0.29619 0.4419 0.39905 0.16667 0.1181 0.35714 0.21428 0.56286 0.29619 0.09238 0.03714 0.18762 0.06667 0.2819 0.09333 0.0057 0.04381 0.0095 0.09143 0.01524 0.13524l0.0095 0.08667 0.01619 0.14286 0.01905 0.24476v0.01048c0.0038 0.02857 0.0048 0.06476 0.0048 0.09905 0.0076 0.05429 0.0095 0.11143 0.01238 0.16762v0.03143c0.0029 0.08381 0.0057 0.17428 0.01048 0.25905 0.01048 0.45524-0.01048 0.91143-0.03143 1.2124-0.30857 0.11143-0.59429 0.28286-0.82952 0.49905l-0.0019 0.0048-0.0038 0.0029c-0.16667 0.16-0.3 0.32952-0.40095 0.50381-0.05619 0.09619-0.10095 0.19714-0.14 0.30286-0.0381 0.10667-0.07238 0.21714-0.08952 0.32762l-0.0029 9.52e-4v0.0048s-0.04381 0.26476-0.10762 0.52667v0.0029l-0.0019 0.0076c-0.05429 0.25619-0.1219 0.52095-0.1219 0.52571l-0.0038 0.0038v0.0076c-0.0019 9.52e-4 -0.06476 0.26571-0.14286 0.5219l-0.0019 0.0048v0.0057c-0.07143 0.25714-0.1581 0.52-0.1581 0.52l-0.0029 0.0076v0.0038c-0.13428 0.43238-0.12381 0.88476 0.02381 1.3114 0.05048 0.15238 0.1181 0.3019 0.20476 0.44381-0.36286 0.89238-0.74572 1.78-1.1924 2.64-0.20667 0.01333-0.41333 0.05143-0.60572 0.11524-0.22667 0.08-0.42571 0.17905-0.58952 0.29905-0.08952 0.06476-0.17524 0.13619-0.25333 0.2181-0.08571 0.08381-0.1581 0.16952-0.21905 0.25619 0 0.0019-0.04095 0.06-0.1019 0.14476-0.05524 0.07905-0.13619 0.19238-0.21905 0.3l-0.2 0.25714-0.04 0.05905c-0.05714 0.07333-0.09333 0.11905-0.09333 0.11905l-0.0057 0.0019-0.0038 0.0057s-0.17714 0.21714-0.35714 0.43143l-0.36571 0.42c-0.28762 0.30857-0.46952 0.72095-0.51905 1.1933-0.02476 0.22381-0.01524 0.44571 0.02667 0.66952 0.02 0.10476 0.04476 0.20857 0.07809 0.30857-0.03714 0.03238-0.07809 0.07048-0.12381 0.11429-0.04095 0.03238-0.08571 0.06762-0.12952 0.10667-0.20857 0.18095-0.44667 0.38286-0.69333 0.57238-0.03333 0.02381-0.06286 0.04857-0.09238 0.07048-0.04762 0.03524-0.09143 0.07333-0.13714 0.10572l-0.04095 0.03048-0.19048 0.14c-0.04952 0.03238-0.10095 0.06952-0.14952 0.10762-0.08952 0.06476-0.17524 0.12667-0.24667 0.17238l-0.0019 0.0019-0.0067 0.0029-0.14286 0.09619c-0.2819-0.18-0.59714-0.29524-0.91143-0.34381-0.12952-0.02476-0.24762-0.02857-0.36381-0.02857-0.09524 0-0.19048 0.0038-0.2819 0.0181-0.2 0.02381-0.4 0.08476-0.62857 0.1981l-0.49619 0.24667-1.6448 0.73905c-0.75143 0.31333-1.2486 1.0419-1.3105 1.88l-0.16952 0.06095-1.0467 0.38952c-0.47048 0.15524-0.93714 0.30762-1.2314 0.40571-0.23333-0.24857-0.51143-0.44667-0.82381-0.57619-0.25524-0.10572-0.52762-0.15905-0.80857-0.15905-0.17905 0-0.36095 0.02095-0.5381 0.06476l-1.1362 0.27429-1.1448 0.22381-0.0057 0.0057h-0.0057c-0.25333 0.05429-0.45619 0.12571-0.63143 0.22095-0.19048 0.10762-0.37238 0.24571-0.52952 0.41619-0.22286 0.23905-0.3981 0.53333-0.50476 0.85048l-0.1781 0.02-0.12857 0.01143-0.38952 0.0381c-0.10762 0.01143-0.22571 0.01429-0.34952 0.01905-0.07524 0.0029-0.14952 0.0038-0.22286 0.01238l-0.0781 0.0019-0.51238 0.02571c-0.06286 0.0029-0.12476 0.0048-0.2019 0.0048h-0.47432c-0.04286-0.09619-0.09333-0.19238-0.15238-0.28381-0.12286-0.19429-0.26571-0.36572-0.42667-0.50762-0.17143-0.15048-0.35905-0.27524-0.5619-0.36667-0.18667-0.0781-0.39524-0.13143-0.63333-0.16095h-0.005714l-0.0067-0.0048s-0.28762-0.03048-0.56952-0.05905l-0.083776-0.00393c-0.1019-0.01333-0.20571-0.02286-0.27333-0.03428l-0.006667-0.003815h-0.0086l-0.17524-0.02952c-0.0019 0-0.28476-0.04095-0.56857-0.08571l-0.0048-0.0019h-0.0086c-0.08952-0.01048-0.18572-0.03143-0.27238-0.04952-0.02952-0.0067-0.05905-0.01238-0.0819-0.01714-0.10476-0.02286-0.17714-0.0381-0.17714-0.0381-0.12286-0.02286-0.25524-0.03714-0.38476-0.03714-0.1019 0-0.20286 0.0076-0.30381 0.0219-0.23524 0.03524-0.44 0.09524-0.62762 0.18381-0.29143 0.13905-0.5619 0.34571-0.7819 0.59905l-0.0057-0.0029-0.16-0.04762c-0.14095-0.04381-0.30095-0.09238-0.47428-0.14571l-0.02381-0.0048c-0.10286-0.03238-0.21619-0.07429-0.33333-0.11429-0.06667-0.02762-0.13905-0.04952-0.21048-0.07333-0.06762-0.02476-0.13714-0.05048-0.20762-0.07143-0.11619-0.04381-0.22857-0.08191-0.33619-0.12476l-0.11619-0.04381-0.3619-0.14381-0.15619-0.06381-0.0076-0.0019c-0.01905-0.33714-0.10381-0.67524-0.25619-0.96857-0.0981-0.18952-0.22667-0.36762-0.38952-0.53429-0.16667-0.17048-0.35714-0.30952-0.56667-0.40952l-0.16762-0.08095c-0.09714-0.04381-0.22571-0.11048-0.34857-0.17143l-0.53238-0.2781-0.16286-0.08762c-0.06286-0.02952-0.13714-0.07143-0.21429-0.1181-0.04381-0.02381-0.09238-0.05143-0.13714-0.07429l-0.52-0.29143c-0.32095-0.1819-0.68381-0.27714-1.0524-0.27714-0.09428 0-0.19333 0.0048-0.29143 0.02095-0.34 0.04381-0.66381 0.16-0.95143 0.34381l-0.16-0.0981-0.48571-0.30476-0.46476-0.29619-0.61143-0.39905-0.33333-0.21524c-0.05905-0.04381-0.11333-0.08-0.16-0.10667 0.11238-0.83619-0.24476-1.6619-0.94667-2.1371l-1.0371-0.6981-1.0467-0.70286c-0.37429-0.24857-0.78857-0.37143-1.2343-0.37143-0.04476 0-0.08857 0-0.13048 0.0019-0.36857 0.02-0.71714 0.12762-1.02 0.31238-0.06-0.03905-0.12476-0.07905-0.20286-0.12381-0.08952-0.04762-0.18667-0.10667-0.29143-0.16381-0.21714-0.12762-0.46571-0.27143-0.72-0.41333l-0.0019-0.0048h-0.0048l-0.60572-0.3181-0.4219-0.2181-0.0057-0.0067-0.0057-0.0057c-0.07238-0.02952-0.13429-0.06095-0.18952-0.09048-0.0067-0.35429-0.09619-0.70762-0.26857-1.0238v-0.0038l-0.0029-0.0038c-0.23429-0.41905-0.61238-0.76-1.061-0.96286-0.0181-0.0095-0.09619-0.04667-0.20286-0.08952l-0.25238-0.10286-0.16095-0.06762c-0.28476-0.12095-0.57143-0.23524-0.6-0.25048-0.01905-0.0048-0.0981-0.04-0.20952-0.0819l-0.20762-0.08-0.20476-0.0781-0.61048-0.23143-0.0019-0.0038-0.0067-0.0019c-0.24952-0.08952-0.50762-0.13524-0.76952-0.13524-0.22667 0-0.44952 0.03238-0.66 0.09905-0.33905 0.10381-0.65143 0.29429-0.90762 0.54857l-0.19619-0.06381c-0.19619-0.06571-0.43333-0.13905-0.68381-0.21428-0.14-0.0419-0.2819-0.08571-0.42286-0.12857-0.26762-0.08381-0.53143-0.16-0.76667-0.22667-0.12476-0.03524-0.24095-0.06571-0.34762-0.09714-0.07429-0.02381-0.14286-0.04476-0.20571-0.05714-0.16952-0.8381-0.80857-1.5152-1.6495-1.72-0.0029 0-0.08-0.0181-0.19333-0.04286-0.11333-0.03143-0.27048-0.07048-0.44095-0.10762l-0.62286-0.1419c-0.01238-0.0038-0.32286-0.07333-0.63714-0.1419-0.11524-0.02381-0.23524-0.04952-0.33905-0.07048-0.68381-1.7486-1.38-3.4895-2.0676-5.24-0.18476-0.45905-0.36762-0.92095-0.55238-1.3838-0.03238-0.08095-0.04667-0.1781-0.10381-0.23524-0.09619-0.09714-0.21714-0.22952-0.32476-0.22952-0.09714 0.0019-0.25238 0.15143-0.28 0.26095-0.1181 0.48857-0.19238 0.99333-0.30667 1.4876-0.02571 0.12-0.12381 0.29714-0.20667 0.30762-0.11524 0.01048-0.27333-0.08381-0.36381-0.17714-0.09714-0.10952-0.15429-0.26286-0.19238-0.40952-0.11619-0.43905-0.24762-0.87619-0.3181-1.3257-0.37714-2.3876-0.36857-4.7981-0.29429-7.2095 0.01143-0.37619 0.02-0.76 0.09714-1.1286 0.15238-0.71619 0.64286-0.87429 1.181-0.38286 1.559 1.4171 3.0867 2.8695 4.6571 4.2743 0.60952 0.55048 1.3029 1.0124 1.9476 1.521 0.10952 0.08952 0.24572 0.25524 0.22952 0.35905-0.01905 0.11429-0.19429 0.26762-0.3219 0.28857-0.39238 0.06667-0.79333 0.09333-1.1952 0.10952-0.5419 0.01524-0.72286 0.21714-0.57048 0.72095 0.07619 0.26381 0.18476 0.53524 0.3419 0.75143 2.3848 3.321 5.04 6.401 8.2333 8.9781 0.73238 0.59714 1.5229 1.12 2.2962 1.6562 2.1229 1.4867 4.4248 2.6067 6.9248 3.2829 0.99048 0.26572 2.0048 0.49619 3.0219 0.60381 0.95238 0.1 1.921-0.08191 2.661-0.74 0.36-0.31905 0.58381-0.82381 0.79428-1.279 0.49429-1.06 0.46286-2.2124 0.52572-3.3476 0.18952-3.4676 0.26571-6.9371 0.45238-10.404 0.1419-2.5771 0.27905-5.16 0.41905-7.7362 0.14095-2.6133 0.16667-4.6362 0.30857-7.2486 0.0095-0.17143 0.02381-0.35429-0.01524-0.51619-0.15619-0.63905-0.39143-0.81048-1.0571-0.81048-3.4581-0.0029-6.6819-0.0057-10.14-0.01333-0.29524-0.0048-1.1124 0.07429-1.3086 0.29714-0.17524 0.20286-0.38095 0.38571-0.5619 0.58667-0.16095 0.17429-0.29429 0.18952-0.45238-0.01048-1.0771-1.361-3.4524-3.3086-4.5248-4.6752-0.05429-0.06476-0.06-0.24-0.01238-0.30095 1.0733-1.3524 3.4505-2.9305 4.5371-4.2743 0.01143-0.01714 0.03619-0.02191 0.09238-0.04952 0.36 0.24381 0.74381 0.48572 1.1095 0.75333 0.45143 0.32667 1.5086 0.4981 2.0924 0.49524 3.3276-0.02571 6.6552-0.01048 9.9829-0.01048 0.66572 0 0.94286-0.26762 0.97524-0.93048 0.04476-0.92381 0.09048-1.6114 0.14095-2.5314 0.03809-0.62476-0.22667-1.0629-0.75048-1.4076-0.68667-0.45524-1.3895-0.88381-1.9324-1.5314-0.96-1.1514-1.6095-2.4219-1.6924-3.9333-0.16-2.9781 0.88667-5.3886 3.5324-6.8857 1.7105-0.96095 3.581-1.2352 5.5438-0.70381 1.2448 0.34 2.3581 0.87048 3.2733 1.7848 1.0429 1.0448 1.659 2.2962 1.9505 3.7495 0.2 0.99333 0.19619 1.9629-0.01429 2.9343-0.3219 1.501-1.0914 2.7562-2.2829 3.7257-0.50952 0.41333-1.0933 0.74667-1.6514 1.0981-0.36095 0.22571-0.52667 0.56286-0.51333 0.95619 0.02857 1.039 0.07809 1.8467 0.15048 2.8848 0.03905 0.54857 0.34095 0.79048 0.91048 0.79048 3.4905 0.0029 6.9819 0.01333 10.472-0.01238 0.30667-0.0029 1.2162-0.20952 1.499-0.37905 0.43714-0.26095 0.84476-0.56571 1.2867-0.8619 0.08095 0.08381 0.14952 0.14762 0.20857 0.22095 1.0105 1.259 3.081 2.7619 4.101 4.0181 0.13905 0.17143 0.16572 0.28476 0.01524 0.46952zm-18.244-14.393c0.07714-2.1438-2.0038-3.6657-4.3-2.7876-1.3057 0.49905-1.9857 1.881-1.701 3.2676 0.27714 1.34 1.4752 2.2619 2.9505 2.2619 1.6857 0.0057 2.9924-1.1695 3.0505-2.7419zm11.684-12.138-3.4619-1.9067-3.461 1.9067 0.74381-3.8895-2.8819-2.7086 3.919-0.49143 1.68-3.58 1.68 3.58 3.92 0.49143-2.8819 2.7086zm-10.173-3.121-4.7457-2.6105-4.7486 2.6105 1.0181-5.3124-3.9533-3.701 5.38-0.67429 2.3038-4.8943 2.3038 4.8943 5.3771 0.67429-3.9514 3.701zm-12.965-0.50571 0.74 3.8905-3.4581-1.9095-3.461 1.9095 0.74381-3.8905-2.8857-2.7095 3.9229-0.49048 1.68-3.5848 1.6781 3.5848 3.919 0.49048zm-20.979 46.91c-0.84762-0.75524-1.6981-1.5371-2.5181-2.2962-0.30095-0.27714-0.60762-0.55714-0.91333-0.84095 0.28286-1.3876 0.8619-2.7095 1.9486-3.6514l0.03524-0.03238 0.03524 0.02762c1.7305 1.2752 3.0457 3.4819 3.6105 6.0533 0.21048 0.9619 0.29905 1.9171 0.27238 2.8238-0.12096-0.19143-0.27238-0.32953-0.34286-0.38572-0.27238-0.22095-0.54762-0.43524-0.81619-0.63714-0.46381-0.35905-0.90095-0.69333-1.3114-1.061zm5.88 2.6638 0.03238-0.06 0.05333 0.04286c6.8362 5.2048 7.7019 8.2648 6.8781 13.006-0.08095-0.04857-0.16-0.09429-0.2381-0.1381-2.7895-1.6895-5.1305-3.559-7.1581-5.7248-1.8524-1.9743-3.3924-3.8438-4.7038-5.7152-0.03809-0.05143-0.07428-0.12-0.10667-0.19714 0.3381-0.02191 0.68381-0.05238 1.0286-0.10571 0.2581-0.04 0.50286-0.18857 0.68381-0.38952-0.09429 0.58286-0.24476 1.1295-0.44667 1.6257 0.2419 0.20952 1.8848 1.6543 2.3143 2.7314 0.16381-1.4914 0.63333-3.2219 1.6629-5.0752zm2.141-39.95 0.03809 0.02571-0.01429 0.04286c-0.01524 0.04286-1.5057 4.4343-4.301 6.101-1.4962 0.88952-2.9438 1.0295-4.2229 1.1514-1.2724 0.12572-2.3962 0.23429-3.22 1.0819 0.45238-0.36952 1.0762-0.75429 1.74-0.71905 0.47905 0.02476 0.89714 0.27333 1.2429 0.72857 0.30095 0.39905 0.40762 0.96762 0.28762 1.519-0.12952 0.58762-0.49619 1.081-1.0076 1.3581-0.63619 0.34476-1.5876 0.29238-2.7562-0.14667-0.22667-0.08476-0.57429-0.13429-0.93714 0.11524-0.55905 0.38286-2.2886 2.3943-1.2752 4.7495 0.1219-0.15905 0.25619-0.31143 0.40476-0.45048 2.2505-2.1629 7.1943-3.7143 7.2457-3.7276l0.06-0.02191 0.01143 0.06381c0.01333 0.06095 1.1219 5.961-0.72762 8.4381-1.66 2.2219-3.9286 2.7295-5.1476 3.0048-0.15714 0.03429-0.29714 0.06762-0.41619 0.1-0.94381 0.24-1.4038 1.3105-1.4638 1.8124 0.36667-0.39143 1.0352-1.0019 2.0914-0.69048 0.84762 0.24952 1.2581 0.8619 1.2524 1.879-0.0038 0.46857-0.34 1.0343-0.83429 1.4-0.38571 0.28857-0.83524 0.43048-1.3019 0.42762-0.16572 0-0.33524-0.02095-0.50476-0.06095 1.2276 1.8514 1.4648 3.2571 1.5543 5.2838-0.10381-0.09429-0.20762-0.19238-0.31428-0.28762-0.43238-0.38857-0.83905-0.47048-1.1067-0.47048-0.51714 0-1.1952 0.34381-1.3914 1.3057-0.10762 0.5219-0.12286 1.0438-0.13333 1.5038-0.05143 2.0095-0.0781 4.3581 0.24571 6.6952 0.07524 0.51714 0.19048 1.019 0.30572 1.5038-0.43904-0.10666-0.88856-0.20762-1.3457-0.31333-1.8133-0.41238-3.8724-0.88095-5.9829-1.7171-3.7829-1.4924-5.1743-7.021-5.1886-7.0762l-0.013333-0.05333 0.050476-0.01714c0.041905-0.010483 3.9162-1.1029 8.0124-0.060959-4.1933-2.4667-5.5848-7.1181-5.8114-9.8629-0.24952-3.0648-0.66952-7.9886-0.66952-7.9886 0.030476 0.01238 2.7514 4.0248 5.7905 5.6371 0.16667-0.69905 0.24-1.2686-0.50857-1.879-0.98476-0.80762-1.7514-1.8495-1.6505-3.2581 0.08-1.1267 1.4086-2.1543 2.8248-1.9229 1.7667 0.29143 2.0343 1.8886 2.0371 1.8962 0.2581-0.30381 0.7819-1.5286-0.88286-4.6067-2.4562-4.5362 0.93619-11.012 0.9219-10.622-0.03048 0.75524-0.03905 1.2724 0.54667 2.0571 0.28-0.38381 0.88286-0.89524 1.361-0.89428 0.81048 0.0029 1.4638 0.66476 1.4571 1.4743-0.0048 0.80762-0.66476 1.461-1.4762 1.4571h-0.04476c0.46667 1.1924 0.69238 3.1752 0.57238 4.8019 0.31428-1.1733 0.94-3.4314 1.6867-5.4038 0.10762-0.28857 0.25048-0.58667 0.42286-0.89428-2.5638-4.0705-2.581-7.5838-0.05143-10.749 1.8971-2.3752 4.2467-3.3152 5.8495-3.8114l0.04476-0.01238 0.02095 0.04095c0.46095 0.85333 0.52 2.4295 0.41333 4.0686 0.17619-0.4981 0.49333-1.1133 1.0724-1.7105 1.4648-1.5048 3.9286-2.2857 7.3305-2.3333l0.05333-0.0029 0.0067 0.05714c0.43333 5.6124-4.0952 8.8552-5.0581 9.1457 1.8581 0.25619 2.7914 0.83048 2.8048 0.83714zm-18.675-7.4657-2.2448-3.0305 0.86857-2.441 2.2457 3.0286 3.4514-1.0419-0.86762 2.4543zm2.4629 0.94667-0.81238 2.0924-3 0.80572-1.861-2.6686 0.80857-2.0867 1.8648 2.6705zm-1.9362 4.1762-0.6 1.7505-2.4457 0.75905-1.62-2.1352 0.59714-1.7457 1.6219 2.1419zm-4.499 4.9848c0-0.50762 0.40667-0.91333 0.91048-0.91333 0.5019 0 0.91238 0.40572 0.91238 0.91333 0 0.50095-0.41048 0.90667-0.91238 0.90667-0.50381 0-0.91048-0.40571-0.91048-0.90667zm2.76 2.2676-0.40476 1.9705-2.5333 1.159-2.0429-2.08 0.4-1.9657 2.0467 2.0838zm-3.1638 4.5352 2.2114-0.94381-0.39524 1.6905-2.2152 0.93524-1.7105-1.8457 0.39619-1.6857zm-0.61619 3.3124 1.7933-0.84952-0.27048 1.4038-1.7933 0.84476-1.4724-1.4648 0.26952-1.4019zm4.779 33.164c2.4048-0.39619 2.5657-0.07143 2.8333 0.47524 0.18762 0.38381 0.4219 0.86095 1.6152 1.2771 1.5724 0.54762 2.6343-0.01714 3.2743-0.62952 0.30571 0.78 0.61429 1.561 0.92762 2.3381-0.26571 0.02762-0.52762 0.09714-0.76476 0.21048-0.03333 0.01429-0.0619 0.03524-0.09238 0.04952-0.30286-0.06381-0.6419-0.12286-1.0314-0.17905-1.1543-0.17143-1.8943-0.08381-2.4743 0.10952-0.3181-0.67619-0.96952-1.1695-1.7333-1.2629l-0.64-0.07714-0.6419-0.06572-0.64286-0.07048-0.64191-0.05714c-0.068571-0.0067-0.13714-0.01333-0.20476-0.01333-0.62857 0-1.22 0.27333-1.6362 0.7181-0.22667-0.54667-0.26857-1.0924-0.10381-1.5448 0.17238-0.46476 0.64762-1.0629 1.9571-1.2781zm53.465 18.33c-0.01429 0-0.02952-0.0038-0.04572 0 0.0048 0 0.0076-0.0038 0.01048-0.0038 0.01143 0 0.02381 0.0038 0.03524 0.0038zm14.336-23.194c0.34762 0.05333 0.69238 0.08381 1.0314 0.10571-0.03524 0.07714-0.06952 0.14571-0.10667 0.19714-1.3143 1.8714-2.8514 3.741-4.7076 5.7152-0.35905 0.38762-0.73143 0.76381-1.1152 1.1314-0.0029-0.0067-0.0057-0.0181-0.0086-0.02762 0-0.0038-0.08952-0.25333-0.16286-0.49905v-0.0067c-0.0419-0.12857-0.07809-0.25333-0.09905-0.3419v-0.0038l-0.0019-0.0019c-0.02476-0.08571-0.03714-0.14095-0.03905-0.14667v-0.0029l-0.0029-9.52e-4c0-0.0029-0.06191-0.25714-0.11333-0.50095-0.01429-0.07619-0.03048-0.15048-0.0419-0.22381-0.0086-0.04286-0.01429-0.08095-0.02095-0.11905-0.01429-0.08095-0.02095-0.13333-0.02095-0.13714l-0.0019-0.0048v-0.01048c-0.06667-0.40857-0.25619-0.77048-0.56667-1.0781-0.13905-0.14476-0.3019-0.27524-0.48572-0.38381-0.08095-0.04952-0.1619-0.09524-0.24476-0.1381 0.0019-0.03809 0.0086-0.0781 0.01143-0.12286v-0.01048c0.0038-0.03048 0.0086-0.07333 0.01905-0.12667l0.0086-0.04571c0.0048-0.03048 0.01143-0.06667 0.01429-0.09619 0.0086-0.04572 0.01429-0.09143 0.02381-0.13333l0.04762-0.19619 0.01143-0.05714 0.0038-0.0067 0.0029-0.0076c0.0029-0.02762 0.01714-0.06857 0.03238-0.11048 0.01238-0.03619 0.02381-0.07048 0.03238-0.10952l0.03714-0.11143c0.0076-0.02 0.01429-0.03619 0.02286-0.05619 0.0057-0.01429 0.01238-0.02571 0.01714-0.04286 0.01524-0.03238 0.02667-0.06476 0.0419-0.09905 0.01429-0.0419 0.03048-0.0819 0.04571-0.11333 0.02571-0.04476 0.05048-0.09238 0.07333-0.14 0.04095-0.08 0.07809-0.15524 0.11048-0.19524l0.0067-0.01048 0.0048-0.01143c0.01429-0.02 0.02667-0.03905 0.03905-0.05714 0.07333 0.02095 0.14857 0.04095 0.21714 0.05905 0.19619 0.05143 0.38095 0.08095 0.54952 0.08857 0.07619 0.0095 0.14952 0.01333 0.22 0.01333 0.10762 0 0.20857-0.0095 0.30667-0.02476 0.09714-0.01429 0.19333-0.03809 0.28-0.07048 0.08857-0.03619 0.15429-0.07238 0.23429-0.1219l0.02381-0.0095 0.0029-0.0048 0.0057-0.0038 0.47619-0.29048 0.4781-0.26762 0.0067-0.0076 0.0057-0.0048s0.0181-0.0076 0.04381-0.02191c0.38762 1.0619 0.6019 2.0619 0.70286 2.9724 0.42476-1.0771 2.0724-2.5219 2.3133-2.7314-0.20286-0.49619-0.35143-1.0429-0.44667-1.6257 0.18286 0.20095 0.42571 0.34952 0.6819 0.38952zm-9.96 6.0295 0.0038 0.0067v0.0029c0.0095 0.04095 0.01524 0.08857 0.02381 0.1381 0.02191 0.11238 0.0419 0.23619 0.06857 0.36476 0.07048 0.35714 0.16 0.7019 0.16667 0.71714v0.01048h0.0029c0.0038 0.01429 0.0086 0.04572 0.02095 0.09238l0.06571 0.25048h0.004736c0.02762 0.1019 0.06286 0.22571 0.1019 0.35048 0.04762 0.16 0.10095 0.32 0.14286 0.45238v0.0029l0.08095 0.22667c0.17238 0.4981 0.50762 0.92 0.94095 1.1952 0.04572 0.02476 0.08952 0.05333 0.13714 0.07905-0.8619 0.63238-1.7714 1.2362-2.7381 1.8238-0.07619 0.04381-0.1581 0.08952-0.2381 0.1381-0.59238-3.3962-0.31238-5.9295 2.4029-9.0048l-0.0095 0.04857c-0.01333 0.0819-0.02857 0.16857-0.03619 0.25524-0.0048 0.05524-0.0086 0.10667-0.01429 0.15714-0.0019 0.03905-0.0086 0.07524-0.01143 0.11428-0.1219 0.06-0.2381 0.13429-0.34571 0.21714-0.2 0.15619-0.36476 0.34476-0.50095 0.56571l-0.0038 0.0067v0.0038c-0.27048 0.45524-0.38 1.0229-0.29714 1.5495 0.0038 0.02476 0.01524 0.11429 0.03143 0.23524zm-57.916 1.6162 2.5457 0.26762c0.68095 0.08952 1.2314 0.62 1.3381 1.2943l0.02381 0.14667 0.66095 0.09619c0.24095 0.03809 0.54381 0.08667 0.85524 0.13524l0.27333 0.04286c0.27143 0.04286 0.53905 0.09143 0.77714 0.13143l1.0086 0.18286 0.06762-0.13048c0.15429-0.29333 0.40476-0.53048 0.69905-0.67238 0.30572-0.14857 0.66286-0.18857 0.98667-0.12476l0.62762 0.13524c0.31238 0.06381 0.6219 0.13619 0.62381 0.13619l0.62857 0.14572c0.15429 0.03524 0.30667 0.07143 0.42476 0.1l0.19714 0.04952c0.66857 0.16286 1.1533 0.75524 1.18 1.4448l0.0029 0.14762 0.14476 0.03905c0.0048 0 0.20286 0.05048 0.49714 0.13619l0.35524 0.1019c0.23048 0.06286 0.48952 0.13619 0.74476 0.21333l0.44762 0.1381c0.23905 0.07143 0.46571 0.14381 0.65048 0.20381l0.63619 0.20952 0.08286-0.11714c0.2-0.27143 0.47905-0.47619 0.79143-0.56952 0.32286-0.1 0.68381-0.09143 1.0048 0.02476l1.0257 0.39238c0.10667 0.04095 0.17905 0.07333 0.18476 0.07333l1.0171 0.42c0.10762 0.04476 0.17429 0.07905 0.18095 0.0819 0.32 0.14095 0.58857 0.38095 0.75238 0.6781 0.16095 0.3 0.22095 0.63333 0.16952 0.96286l-0.02 0.14476 1.621 0.82857c0.24857 0.1381 0.49524 0.2819 0.71428 0.40952l0.28952 0.16952c0.08667 0.04857 0.16095 0.09524 0.22286 0.13428l0.3419 0.21333 0.11048-0.09524c0.25524-0.21905 0.57143-0.3419 0.91238-0.36 0.34476-0.0181 0.66952 0.06857 0.95714 0.26l2.081 1.3971c0.55619 0.37619 0.8019 1.0743 0.60286 1.739l-0.0419 0.13905 1.5029 0.98762 1.521 0.94952 0.11048-0.09714c0.24952-0.21905 0.55238-0.3581 0.88286-0.3981 0.32381-0.04286 0.64095 0.01619 0.92476 0.17905l0.64476 0.3581c0.08952 0.05048 0.17524 0.09714 0.24381 0.13429l0.69238 0.36381c0.13524 0.07048 0.27048 0.13428 0.37238 0.18381l0.16667 0.08095c0.14 0.06381 0.26762 0.15714 0.38 0.27428 0.11714 0.11905 0.20571 0.24 0.27428 0.37429 0.14572 0.28381 0.20857 0.62 0.17238 0.95048l-0.01428 0.14476 0.12857 0.05619s0.05143 0.02476 0.13905 0.05524l0.82571 0.33048c0.1181 0.04571 0.24095 0.08952 0.36571 0.13048l0.40095 0.14381c0.12572 0.04572 0.24762 0.08857 0.36667 0.12667l0.84476 0.25619c0.09429 0.02952 0.15143 0.0419 0.15143 0.0419l0.13714 0.02952 0.07429-0.1181c0.17619-0.28 0.43333-0.50762 0.72286-0.64286 0.12762-0.06095 0.26667-0.1 0.44286-0.12571 0.14762-0.02476 0.30286-0.02286 0.45143 0.0076l0.24946 0.056227c0.09524 0.01524 0.21143 0.04 0.32476 0.05333l0.73714 0.11524c0.09524 0.0181 0.21714 0.03048 0.34476 0.04476l0.63333 0.0619c0.17905 0.02762 0.32381 0.06286 0.45238 0.11619 0.13619 0.06095 0.26476 0.14381 0.38095 0.25048 0.11524 0.10095 0.21524 0.22381 0.31238 0.37238 0.08571 0.13428 0.15333 0.28571 0.19905 0.44571l0.04095 0.14381h0.72286l0.22572 9.52e-4c0.07333 0 0.15428-9.52e-4 0.23524-0.0057l0.80857-0.04c0.13048-0.0076 0.26095-0.01048 0.38571-0.02191l1.1695-0.11714 0.026667-0.14571c0.05905-0.32762 0.21429-0.63619 0.43143-0.86857 0.10667-0.1181 0.23238-0.21143 0.36572-0.28762 0.11905-0.06476 0.25524-0.11238 0.44286-0.15524l1.1629-0.22476 1.1533-0.27714c0.3181-0.08095 0.64-0.0581 0.92857 0.06381 0.29714 0.12381 0.56381 0.34381 0.74952 0.61905l0.0819 0.12286 1.7019-0.5581 1.401-0.52381c0.08857-0.03238 0.1419-0.05143 0.1419-0.05143l0.13048-0.0581-0.011424-0.1419c-0.05333-0.69524 0.30857-1.3276 0.91238-1.579l1.6629-0.74571 0.49905-0.24857c0.1619-0.07714 0.29524-0.11905 0.42667-0.13905 0.14762-0.0181 0.30571-0.01238 0.45429 0.0086 0.30667 0.04571 0.6181 0.19238 0.87048 0.40857l0.11714 0.09524 0.5381-0.3581c0.08571-0.05524 0.18095-0.1219 0.27905-0.19333l0.38667-0.27905c0.04762-0.03524 0.0981-0.07809 0.14762-0.11619l0.08667-0.06952c0.27524-0.20667 0.53524-0.43048 0.74667-0.60952l0.5981-0.54286-0.06571-0.13143c-0.07238-0.14476-0.12476-0.30476-0.15429-0.47238-0.03238-0.16095-0.03905-0.3181-0.02476-0.47238 0.03905-0.32857 0.1581-0.60857 0.35714-0.82381l0.7381-0.86381s0.05048-0.0581 0.11905-0.15143l0.23429-0.30952c0.09238-0.11429 0.17619-0.23429 0.23714-0.32l0.10476-0.14857c0.04572-0.06381 0.09524-0.1219 0.15238-0.1781 0.05238-0.05333 0.10952-0.09905 0.16857-0.14381 0.10952-0.08095 0.25048-0.15238 0.41048-0.20571 0.2981-0.09905 0.63905-0.11048 0.96286-0.03238l0.14667 0.03524 0.32381-0.56c0.05429-0.0981 0.11333-0.2019 0.17333-0.31905l0.35047-0.67623c0.09143-0.1819 0.18476-0.36381 0.2581-0.5381l0.0781-0.16381c0.05048-0.11333 0.0981-0.21905 0.13619-0.30952l0.25619-0.60381-0.11524-0.09619c-0.26286-0.20476-0.4581-0.48476-0.56-0.78286-0.10095-0.29714-0.10667-0.60381-0.01905-0.89524 0 0 0.09429-0.27714 0.16762-0.55143 0.08286-0.27714 0.14857-0.55428 0.14857-0.55428 0.0029-0.0067 0.07714-0.28286 0.13143-0.5581 0.06762-0.27714 0.11619-0.56476 0.11619-0.56476 0.01524-0.07429 0.03524-0.14571 0.0619-0.21714 0.02476-0.07143 0.05619-0.13619 0.09238-0.19905 0.06762-0.12 0.16381-0.23905 0.28095-0.35238 0.23048-0.21619 0.53714-0.36857 0.8581-0.43714l0.14286-0.02762 0.01429-0.14667c0.0029-0.03143 0.08095-0.81524 0.05619-1.6105l-0.0086-0.29619c-0.0029-0.0619-0.0057-0.12571-0.01143-0.18381l-0.05333-0.61143c-0.0181-0.15619-0.03333-0.2819-0.04762-0.36381l-0.04857-0.28286-0.14857-0.01143c-0.1581-0.0219-0.3181-0.06381-0.48095-0.12762-0.15524-0.05714-0.29143-0.12857-0.41143-0.21048-0.10667-0.07809-0.22572-0.17048-0.31143-0.28381-0.08952-0.10476-0.15238-0.20857-0.19048-0.32286l-0.21143-0.48476c-0.01429-0.03619-0.03238-0.06762-0.05048-0.10572l-0.13902-0.24571-0.23524-0.32571c-0.05429-0.07238-0.11333-0.13714-0.16095-0.18667l-0.12476-0.12571c-0.02381-0.02286-0.04476-0.04571-0.06191-0.07333l-0.02762-0.04857c-0.01429-0.01905-0.02952-0.04095-0.03714-0.06571-0.04286-0.11333-0.07524-0.21238-0.09714-0.34667-0.03619-0.17143-0.08286-0.52667-0.05048-0.94381l0.01333-0.15238-0.24667-0.08762c-0.06-0.02667-0.14381-0.04857-0.24476-0.06952l-0.08667-0.02381c-0.09428-0.02667-0.20095-0.04667-0.3181-0.06095-0.05333-0.0067-0.10667-0.01429-0.17238-0.02476-0.05905-0.0067-0.11905-0.01048-0.18095-0.01429l-0.09143-0.0048c-0.0981-0.0057-0.22095-0.01238-0.29238-0.0057l-0.28571 0.0057c-0.06571 0.0019-0.13048 0.01238-0.19619 0.01905l-0.07143 0.0086c-0.05714 0.0581-0.11238 0.13048-0.16286 0.21048-0.0029-0.06286-0.0029-0.12762-0.0029-0.19429-0.09619 0.01143-0.18476 0.03143-0.26762 0.04476l-0.69619 0.15238-0.0057 0.15524c-0.0057 0.1619-0.03048 0.32571-0.07429 0.48762-0.04571 0.16-0.10476 0.30476-0.1781 0.42857-0.08095 0.13619-0.17048 0.25238-0.26286 0.3419-0.05048 0.04381-0.10095 0.08286-0.16 0.12095-0.05905 0.03428-0.11905 0.07524-0.18762 0.10571l-0.8381 0.40095c-0.09524 0.05048-0.16095 0.09048-0.16095 0.09048l-0.49429 0.27429-0.49524 0.30857c-0.06286 0.03333-0.09524 0.05429-0.14 0.07238-0.04571 0.02-0.09333 0.03143-0.15524 0.03429-0.10381 0.02095-0.20476 0.02476-0.36571 0.0086-0.12381-0.0086-0.27048-0.03238-0.43048-0.06952-0.14857-0.04095-0.31048-0.08667-0.47905-0.16l-0.13905-0.06095-0.16476 0.20857c-0.04381 0.04857-0.09048 0.12286-0.14572 0.20952l-0.05048 0.07429c-0.05714 0.08286-0.10762 0.17619-0.16 0.28286-0.02381 0.04286-0.04952 0.09143-0.08095 0.15143-0.02381 0.05333-0.04476 0.10571-0.06571 0.16l-0.05524 0.13333c-0.01238 0.03048-0.02476 0.06095-0.03905 0.1019l-0.07238 0.22381c-0.02 0.06095-0.04 0.1219-0.05333 0.18l-0.06286 0.26381c-0.01048 0.05905-0.01905 0.12-0.02857 0.17619l-0.02095 0.12857c-0.01238 0.06952-0.02381 0.13333-0.02571 0.19143l-0.01905 0.15714c-0.0057 0.07524-0.01143 0.14381-0.01524 0.19714l-0.01143 0.27619 0.14381 0.04857c0.15619 0.05048 0.3019 0.1181 0.45143 0.21048 0.13524 0.08476 0.2581 0.17905 0.36286 0.28572 0.21048 0.20762 0.33238 0.44095 0.37429 0.70571 0 0 0.0086 0.06952 0.02667 0.17238l0.02 0.11333c0.01238 0.0781 0.02762 0.1619 0.04571 0.24572 0.05333 0.26 0.1219 0.52667 0.1219 0.52667s0.01714 0.06952 0.04476 0.16667c0.02667 0.1 0.06381 0.23333 0.10286 0.36571 0.0819 0.26667 0.17428 0.52952 0.17428 0.52952 0.01619 0.04571 0.02762 0.09619 0.04095 0.1419l-0.78667 0.63238 0.02191-0.12095c0.02762-0.13714 0.01809-0.26857-0.02286-0.39143 0 0-0.09905-0.27714-0.18572-0.56381-0.0419-0.1381-0.07905-0.27524-0.10952-0.38667-0.03048-0.10381-0.04476-0.17048-0.04762-0.17619 0 0-0.07143-0.28095-0.13048-0.56857-0.01905-0.09143-0.03333-0.18-0.04762-0.2619l-0.02381-0.12857c-0.0181-0.10572-0.02667-0.17333-0.02667-0.17333-0.01524-0.12571-0.06476-0.23905-0.15524-0.35619l-0.28286-0.36572-0.07333 0.45714c-0.02381 0.16476-0.16667 0.30286-0.34572 0.33143-0.17524 0.03143-0.34476-0.07048-0.40857-0.24095l-0.17905-0.44857-0.19143 0.44667c-0.05524 0.12667-0.07333 0.27143-0.05333 0.41619 0 0 0.0095 0.08286 0.03238 0.21524l0.02095 0.12286c0.0181 0.09905 0.04 0.21619 0.06381 0.32762 0.06381 0.32667 0.14857 0.64286 0.14857 0.64286 0 0.0067 0.01905 0.08571 0.05238 0.20476 0.02952 0.1219 0.07429 0.28286 0.12476 0.43905 0.09524 0.31714 0.20572 0.62952 0.20572 0.62952 0.04476 0.13048 0.12762 0.24952 0.2381 0.33905l0.3781 0.31238-0.05143-0.48381c-0.02095-0.1781 0.08571-0.33905 0.25619-0.39905 0.17048-0.05714 0.36 0 0.4619 0.1381l0.14095 0.2-1.3495 1.0886c-0.05333-0.02571-0.10476-0.05809-0.15428-0.08857-0.30762-0.19048-0.54476-0.49238-0.66572-0.84667-0.0038 0-0.11619-0.32476-0.2181-0.66095-0.05048-0.1619-0.09714-0.33143-0.13048-0.46381-0.03524-0.12095-0.05619-0.20381-0.05619-0.20952 0 0-0.08952-0.34095-0.1581-0.68571-0.02381-0.11714-0.04762-0.24095-0.06571-0.34476l-0.02381-0.13619c-0.02-0.13048-0.03143-0.22-0.03143-0.22667-0.06286-0.38095 0.01333-0.78857 0.20762-1.1133 0.09524-0.15619 0.21143-0.28667 0.3419-0.39333 0.13048-0.09714 0.28286-0.17524 0.4419-0.22095l0.14-0.04 0.0095-0.29714c0.0029-0.06095 0.01238-0.13619 0.0219-0.22762l0.01714-0.17048c0.0029-0.06095 0.01429-0.12857 0.02571-0.19905l0.02762-0.15619c0.0086-0.06381 0.0181-0.12572 0.03238-0.18857l0.0781-0.32476c0.01143-0.06095 0.03143-0.13048 0.05333-0.19048 0.01524-0.04095 0.02571-0.08286 0.03809-0.11905l0.05048-0.15619c0.01238-0.03429 0.02381-0.06286 0.03809-0.09619l0.06286-0.15524c0.02667-0.06857 0.05714-0.13428 0.08286-0.19524l0.0781-0.14762c0.06571-0.13143 0.13048-0.25905 0.20286-0.36286l0.04667-0.07333c0.06857-0.10381 0.1219-0.19714 0.1781-0.26095l0.18857-0.23714-0.07524-0.11714c-0.09143-0.14952-0.15143-0.31048-0.16952-0.4619-0.02-0.17524-0.0057-0.35905 0.04571-0.54571 0.0619-0.19429 0.16286-0.38667 0.28762-0.55048 0.06857-0.08381 0.14857-0.16857 0.23429-0.24857 0.09619-0.08476 0.19143-0.15905 0.25905-0.19905l0.5781-0.35429c0.29619-0.16952 0.59905-0.33905 0.60286-0.34 0.0029-0.0029 0.07429-0.04476 0.1819-0.10095l0.43143-0.21714 0.63238-0.29238c0.08667-0.03619 0.18095-0.07429 0.27619-0.09905 0.09905-0.01905 0.19333-0.03333 0.29238-0.04 0.19048-0.02 0.37333 0 0.54381 0.04762 0.17143 0.04857 0.33048 0.12 0.46381 0.21524 0.13429 0.09809 0.25048 0.22095 0.3381 0.36381l0.0781 0.12 0.70381-0.16c0.14286-0.02571 0.2981-0.05238 0.47143-0.06857 0.0019-0.06952 0.0086-0.13333 0.01429-0.2019 0.0029-0.06952 0.0086-0.13428 0.01429-0.2019 0.04572-0.47048 0.12286-0.94952 0.22667-1.4314 0.56762-2.5714 1.8819-4.7781 3.6114-6.0533l0.03714-0.02762 0.03524 0.03238c1.0857 0.9419 1.6648 2.2638 1.9486 3.6514-0.31048 0.28381-0.61333 0.56381-0.91333 0.84095-0.82381 0.75905-1.6743 1.541-2.519 2.2962-0.27619 0.24381-0.56571 0.4781-0.86476 0.71143-0.07238 0.05809-0.14381 0.11714-0.21619 0.17048-0.07524 0.05905-0.15238 0.1181-0.23048 0.17905v9.52e-4c0.06857 0.0038 0.13714 0.0095 0.19714 0.01619l0.18667 0.02572c0.14 0.02095 0.27048 0.03905 0.38667 0.07143l0.10762 0.02857c0.11333 0.02762 0.21048 0.04952 0.28762 0.08095l0.28571 0.09714 0.08857-0.10857c0.21238-0.26095 0.5419-0.41238 0.92572-0.41524 0.24095 0.0029 0.45524 0.04381 0.63619 0.12762 0.1219 0.04857 0.22857 0.10095 0.31714 0.16572 0.10762 0.06952 0.20857 0.14667 0.30095 0.22667l0.38381 0.3981c0.04381 0.04667 0.08381 0.09714 0.12571 0.14857l0.10286 0.12952c0.05429 0.06762 0.10476 0.13143 0.14857 0.19238l0.54857 0.87714c0.02572 0.05333 0.05333 0.11238 0.08286 0.17048l0.34762 0.80095c0.07429 0.21048 0.11333 0.4181 0.11333 0.61143-0.0038 0.22-0.03333 0.4019-0.09238 0.55333-0.06571 0.16667-0.15143 0.31619-0.2619 0.4419-0.11143 0.12381-0.24095 0.22571-0.38952 0.3019l-0.12762 0.06667 0.04857 0.29524c0.01333 0.09333 0.02857 0.2219 0.04667 0.3781l0.05905 0.67333c0.0057 0.05714 0.0086 0.11619 0.01143 0.17905l0.0095 0.32c0.02381 0.84-0.05619 1.6819-0.05905 1.6895l-0.01619 0.14857 0.1381 0.05619c0.30952 0.12572 0.5581 0.35714 0.72286 0.66572 0.07619 0.14286 0.13333 0.31238 0.15905 0.49333 0.01524 0.08952 0.02191 0.1819 0.02191 0.27048 0 0.08952-0.01238 0.18857-0.03048 0.28381 0 0.0048-0.05619 0.33619-0.13429 0.66571-0.07048 0.32857-0.15429 0.65143-0.15714 0.6581 0 0.0038-0.07619 0.32381-0.17524 0.65143-0.08095 0.29524-0.17619 0.58286-0.19048 0.63333l-0.01429 0.04286c-0.10667 0.32476-0.32381 0.61238-0.60952 0.80952-0.28571 0.18667-0.61619 0.2781-0.94667 0.24952l-0.14381-0.0095-0.26381 0.62286c-0.03524 0.08952-0.0819 0.18571-0.12952 0.29143l-0.09333 0.2c-0.07714 0.17905-0.17143 0.36667-0.26381 0.55333l-0.35048 0.67429c-0.06476 0.12381-0.12762 0.24095-0.19048 0.34476l-0.33619 0.58571 0.09524 0.10762c0.22 0.24857 0.34857 0.5619 0.37048 0.90476 0.01048 0.1619-0.01143 0.33143-0.0619 0.50667-0.02286 0.08762-0.05238 0.17333-0.09143 0.25238-0.03905 0.08571-0.08857 0.16381-0.14286 0.2419l-0.12476 0.17143c-0.07143 0.10381-0.16667 0.23905-0.27048 0.37238l-0.28571 0.37524c-0.06952 0.09143-0.1219 0.15143-0.12762 0.16l-0.42952 0.51714-0.44381 0.51238c-0.26286 0.27905-0.58381 0.45714-0.92571 0.51048-0.16667 0.02857-0.33619 0.02857-0.49714 9.52e-4 -0.16286-0.02952-0.32095-0.08286-0.46571-0.16667l-0.12572-0.07048-0.63143 0.56667c-0.21619 0.18476-0.48667 0.41619-0.76667 0.62952l-0.06095 0.05048c-0.06286 0.04667-0.12286 0.09524-0.1819 0.13905l-0.4019 0.29143c-0.10095 0.07333-0.19619 0.14286-0.28857 0.20095l-0.56476 0.37619 0.03524 0.13714c0.08952 0.31714 0.06095 0.65524-0.0819 0.9781-0.06381 0.15048-0.1619 0.29524-0.28857 0.42572-0.14952 0.15048-0.29143 0.26-0.44381 0.33524l-0.61524 0.30286-1.761 0.79619c-0.64476 0.26667-1.4029 0.07714-1.8229-0.44476l-0.09524-0.12095-0.14 0.06095c-0.0029 0-0.04762 0.02095-0.12381 0.04476l-1.4314 0.53524-1.7305 0.57143-0.0019 0.14286c0 0.33333-0.11048 0.64571-0.31524 0.91333-0.22476 0.28-0.52381 0.48-0.84857 0.5619l-1.2819 0.30571-1.3019 0.2581c-0.1581 0.03333-0.35333 0.02667-0.52381 0-0.17143-0.02857-0.33524-0.08381-0.48762-0.1619-0.3-0.16-0.52952-0.4019-0.66476-0.70476l-0.05714-0.12857-1.2105 0.11429c-0.12762 0.01429-0.26476 0.01905-0.40095 0.02571l-0.83619 0.0419c-0.08381 9.53e-4 -0.16571 0.0067-0.24286 0.0067l-0.23238-0.0057-0.05619 0.0057-0.67524-0.0057-0.04476 0.1381c-0.05429 0.16-0.13143 0.30762-0.23143 0.44-0.1 0.12571-0.22095 0.2381-0.36476 0.33143-0.14476 0.09238-0.30476 0.16-0.47524 0.20286-0.18476 0.05238-0.34952 0.07143-0.5381 0.04667l-0.74286-0.07905c-0.13905-0.01429-0.27238-0.02191-0.38381-0.04286l-0.88-0.1381c-0.12571-0.01524-0.25048-0.0419-0.35048-0.0619l-0.30095-0.06381c-0.18381-0.03524-0.35714-0.09905-0.51143-0.19048-0.1381-0.0781-0.26667-0.19048-0.38952-0.33143-0.22286-0.26381-0.34571-0.57619-0.36-0.90381l-0.0019-0.15143-0.15238-0.03714c-0.0029-0.0019-0.04667-0.01048-0.12476-0.03714l-0.88946-0.2706c-0.11905-0.03714-0.24095-0.08095-0.36476-0.12476l-0.43143-0.15238c-0.12476-0.04095-0.24762-0.08571-0.36-0.12667l-0.86286-0.34381c-0.07714-0.02952-0.1219-0.05048-0.12476-0.05048l-0.13619-0.06381-0.09619 0.11524c-0.21619 0.24857-0.50571 0.4219-0.83714 0.49048-0.17429 0.03905-0.34286 0.04857-0.50667 0.02762-0.17619-0.02762-0.34476-0.07429-0.51143-0.15714l-0.18381-0.08762c-0.11048-0.05429-0.25524-0.12381-0.4019-0.19905l-0.76476-0.4019c-0.06762-0.03333-0.15143-0.0819-0.24-0.12857l-0.71429-0.39714c-0.30286-0.17524-0.53238-0.43524-0.66857-0.75429-0.12476-0.3019-0.14857-0.64381-0.06857-0.97048l0.03619-0.14-1.4781-0.9219-1.5695-1.0314-0.11333 0.09143c-0.52 0.42571-1.3 0.46762-1.8495 0.09524l-2.0733-1.3962c-0.27333-0.17524-0.4781-0.44571-0.58286-0.75333-0.1-0.30286-0.10762-0.64095-0.02-0.96l0.03524-0.14286-0.33333-0.20857c-0.06286-0.04095-0.13905-0.09143-0.22952-0.14095l-0.32571-0.19143c-0.19905-0.11238-0.42-0.2381-0.64571-0.36667l-0.61619-0.3219-0.97143-0.48857-0.0981 0.10667c-0.22667 0.23905-0.52095 0.41238-0.83619 0.48381-0.31714 0.08095-0.6419 0.05429-0.92095-0.07143 0 0-0.07238-0.03429-0.1819-0.07905l-0.93143-0.38667s-0.07428-0.03048-0.18095-0.07143l-0.95143-0.36476c-0.3-0.10667-0.55333-0.31143-0.73143-0.59143s-0.26762-0.60381-0.2581-0.92667l0.0029-0.14952-0.62476-0.20381c-0.19429-0.06762-0.43048-0.14095-0.68762-0.21714l-0.39619-0.11905c-0.25714-0.08095-0.51905-0.15428-0.75143-0.2219l-0.33333-0.09524c-0.29905-0.08667-0.5019-0.13619-0.5019-0.13619l-0.13905-0.03714-0.0781 0.12286c-0.3619 0.57714-1.0495 0.86476-1.68 0.71524l-0.18381-0.04762c-0.11428-0.02667-0.2619-0.06381-0.41143-0.09619l-0.59432-0.13809s-0.30095-0.06952-0.6-0.13048l-0.5981-0.12762c-0.3219-0.06476-0.60381-0.23238-0.82095-0.48476-0.22-0.24762-0.35238-0.55143-0.39238-0.88095l-0.015238-0.14952-1.0133-0.18286c-0.23524-0.03714-0.49429-0.08191-0.75524-0.12667l-0.11619-0.01905c-0.36857-0.06-0.72857-0.11524-1.0057-0.15905l-0.65333-0.09238-0.06286 0.12952c-0.29143 0.6181-0.91905 0.99048-1.5914 0.90857l-2.4352-0.2619c-0.6419-0.059048-1.1771-0.53524-1.3438-1.1876l0.05619-1.121c0.25333-0.62571 0.90381-1.021 1.5819-0.96095zm65.038-8.979c-0.16572 0.02-0.33429-0.08-0.40857-0.23905-0.07524-0.16762-0.02381-0.35619 0.11714-0.4619l0.38095-0.28857-0.47238-0.07048c-0.13714-0.0181-0.27905 0-0.41619 0.06095l-1.0076 0.48476c-0.11333 0.05809-0.18381 0.10095-0.18381 0.10095l-0.57428 0.32286-0.54381 0.33524c-0.15905 0.09238-0.25333 0.24286-0.29524 0.32286l-0.24381 0.47619 0.49714-0.20095c0.0419-0.0181 0.08476-0.02476 0.13048-0.02952 0.03524 0 0.07714 0.0095 0.11619 0.02 0.08191 0.03048 0.15238 0.08857 0.19905 0.16571 0.04762 0.07333 0.06857 0.1619 0.06286 0.25143-0.0076 0.03619-0.01524 0.07429-0.03619 0.12762-0.01524 0.0419-0.02952 0.07524-0.04952 0.09714l-0.26476 0.33619 0.42762-0.01238c0.12476-0.0029 0.23714-0.03905 0.35905-0.10952l0.51143-0.31238 0.6219-0.35143c0.0181-0.01048 0.03524-0.02095 0.06-0.02762l0.8981-0.43429c0.11238-0.04857 0.20762-0.13048 0.29619-0.24381l0.28572-0.37333zm7.9457 2.3629c0.02762-0.15714 0.01524-0.29905-0.03524-0.43333l-0.31143-0.71714c-0.02667-0.05143-0.05048-0.10667-0.08095-0.16095l-0.48191-0.77905c-0.03524-0.04667-0.07429-0.09619-0.11333-0.14286l-0.04667-0.0619c-0.10667-0.14-0.23238-0.26857-0.33905-0.38381l-0.17048-0.16952c-0.10857-0.0981-0.24286-0.16952-0.38857-0.20381l-0.5181-0.1219 0.30952 0.43048c0.05905 0.08191 0.09048 0.17429 0.08286 0.2581-9.53e-4 0.07619-0.04095 0.16095-0.10667 0.22381-0.0619 0.05905-0.14 0.1-0.23714 0.11905-0.08381 0.02-0.16381 0.01333-0.22381-0.01429l-0.37429-0.16762 0.10095 0.39905c0.03238 0.13333 0.0981 0.24381 0.19048 0.3219l0.14 0.1419c0.05905 0.06095 0.13048 0.13524 0.19905 0.22952l0.46857 0.7181c0.01619 0.02667 0.03143 0.05905 0.04667 0.08762l0.25429 0.59429c0.05048 0.12476 0.12571 0.22857 0.22667 0.30952l0.33048 0.2581-0.0095-0.4219c0-0.1419 0.08286-0.31619 0.27429-0.39714 0.16286-0.06762 0.35619-0.0019 0.44476 0.14857l0.27807 0.45524zm-1.8848 9.4324 0.25333-0.38571c0.08857-0.13619 0.27905-0.20286 0.44857-0.15429 0.16952 0.05429 0.2819 0.21714 0.27333 0.39905l-0.02667 0.4819 0.36-0.32857c0.10571-0.09714 0.1819-0.20952 0.22286-0.33905 0 0 0.10095-0.31238 0.18762-0.62381 0.09238-0.31143 0.16952-0.63048 0.16952-0.63048 0-0.0038 0.08286-0.31619 0.14762-0.63333 0.07524-0.31714 0.13238-0.64286 0.13238-0.64286 0.02571-0.13238 0.01429-0.27429-0.03333-0.40667l-0.16095-0.45905-0.20762 0.44095c-0.07333 0.16381-0.24667 0.25714-0.42572 0.2181-0.17524-0.035238-0.30857-0.1781-0.32667-0.34381l-0.0419-0.46-0.30381 0.34476c-0.09333 0.10762-0.15333 0.22476-0.1781 0.35619 0 0.0057-0.05048 0.29428-0.11905 0.58571-0.06 0.29143-0.13619 0.57714-0.13905 0.58381 0 0.0038-0.06952 0.29143-0.15524 0.57905-0.07714 0.28381-0.17143 0.56571-0.17143 0.57238-0.04286 0.12476-0.04476 0.25714-0.01238 0.39619zm-4.3019 7.2752c0.14476-0.08191 0.34762-0.06762 0.4781 0.04952 0.13333 0.1181 0.16952 0.31048 0.08381 0.46l-0.2419 0.43524 0.47714-0.14476c0.13524-0.0419 0.25714-0.12 0.34952-0.22095l0.43143-0.49238 0.40762-0.49524s0.05524-0.06667 0.13333-0.16667l0.26762-0.34952c0.1019-0.12857 0.19714-0.26476 0.26762-0.36572l0.11619-0.16286c0.08095-0.11429 0.13143-0.24952 0.14-0.38762l0.03905-0.48-0.36571 0.31143c-0.13429 0.11238-0.33714 0.12476-0.4781 0.02095-0.14667-0.1019-0.20953-0.28761-0.15238-0.44666l0.15714-0.44095-0.42476 0.19143c-0.13524 0.0581-0.23905 0.14667-0.30952 0.24952l-0.10952 0.15524c-0.06571 0.09143-0.14952 0.21048-0.24381 0.32857l-0.24952 0.33333c-0.06667 0.0819-0.11143 0.13524-0.11714 0.14l-0.77619 0.91714c-0.08857 0.0981-0.15143 0.22-0.1781 0.35143l-0.08857 0.44095zm-7.1457 5.5829-0.38952 0.29524 0.48381 0.06286c0.03619 9.52e-4 0.07143 0.0067 0.10952 0.0067 0.10571 0 0.20286-0.02 0.29714-0.06l1.7438-0.78476 0.57714-0.28857c0.12857-0.05714 0.23238-0.15619 0.31143-0.28286l0.25619-0.42762-0.47905 0.13048c-0.07714 0.0181-0.16381 0.01429-0.24381-0.02476-0.08095-0.03429-0.14286-0.09905-0.18381-0.17619-0.03905-0.08-0.05333-0.16762-0.03905-0.25429 0.01714-0.08381 0.05905-0.16286 0.11619-0.22286l0.31143-0.3381h-0.47714c-0.12 0-0.23619 0.02762-0.34667 0.0819l-0.53524 0.26381-1.6857 0.75905c-0.12476 0.05143-0.22952 0.13333-0.31524 0.25048l-0.27619 0.36667 0.46095-0.05333c0.17619-0.02191 0.34857 0.07714 0.41619 0.24095 0.07429 0.16095 0.02667 0.35238-0.11238 0.45524zm-8.9571 1.9248c0.17524 0.02095 0.3181 0.15143 0.34857 0.32286 0.03143 0.1781-0.05714 0.35524-0.21429 0.42476l-0.43429 0.18952 0.43714 0.17333c0.08952 0.04095 0.18095 0.05905 0.27333 0.05905 0.04762 0 0.09524-0.0086 0.14286-0.01524l0.63048-0.1219 1.8762-0.42476c0.13714-0.03238 0.26095-0.10667 0.36095-0.21143l0.30476-0.33429h-0.46095c-0.16857 0-0.32095-0.12476-0.36571-0.29524-0.04476-0.17429 0.02952-0.34476 0.18476-0.44l0.40095-0.24476-0.45524-0.1181c-0.13048-0.033333-0.26095-0.038095-0.39238-0.010476l-1.1886 0.28857-1.1981 0.23429c-0.12476 0.02476-0.24381 0.08476-0.35143 0.17333l-0.36667 0.29429zm-9.2305 0.94c0.10762 0.09238 0.23238 0.15333 0.36667 0.1819l0.27048 0.05619c0.10952 0.02286 0.24095 0.05048 0.37143 0.06762l0.82952 0.12571c0.10381 0.02095 0.23524 0.03429 0.37143 0.04571l0.72571 0.07524c0.02762 0.0029 0.05333 0.0067 0.08 0.0067 0.11905 0 0.23333-0.02762 0.33429-0.07809l0.41524-0.21619-0.44286-0.15048c-0.16667-0.05714-0.27333-0.22476-0.25524-0.40571 0.01714-0.17714 0.14286-0.3181 0.31524-0.35429l0.47524-0.09048-0.40476-0.26667c-0.12381-0.081936-0.24667-0.13051-0.36286-0.13813l-0.68-0.07333c-0.12-0.01048-0.23524-0.02191-0.32667-0.03809l-0.79429-0.12286c-0.11333-0.01524-0.22381-0.04-0.31905-0.05428l-0.26476-0.06c-0.12762-0.02762-0.26476-0.01429-0.3981 0.03238l-0.43714 0.15142 0.41333 0.21143c0.15238 0.07524 0.23524 0.25333 0.19905 0.43428-0.03238 0.16762-0.1819 0.30095-0.35905 0.31143l-0.48762 0.02571zm-8.6505-3.5476c0.07524 0.13524 0.17238 0.23143 0.28952 0.29714l0.71619 0.39714c0.08381 0.0419 0.16 0.08857 0.22667 0.12286l0.74 0.3819c0.14286 0.08 0.28857 0.15048 0.3981 0.2019l0.1781 0.08571c0.10762 0.05143 0.22095 0.07714 0.33905 0.07714 0.02095 0 0.0419-0.0029 0.06381-0.0029l0.48095-0.03524-0.36571-0.31619c-0.13429-0.11428-0.17238-0.30286-0.09524-0.46286 0.0781-0.15619 0.25238-0.25143 0.4219-0.22l0.4581 0.08476-0.25428-0.39048c-0.07905-0.11524-0.17905-0.20667-0.29905-0.26381l-0.17619-0.08857c-0.10095-0.04381-0.23429-0.11048-0.36667-0.1819l-0.71714-0.37518c-0.071428-0.034286-0.1581-0.082857-0.25048-0.13333l-0.65714-0.36572c-0.1181-0.06762-0.24571-0.09905-0.38667-0.09905l-0.45714 0.0067 0.3181 0.33333c0.1219 0.12762 0.14762 0.3181 0.05905 0.47429-0.08571 0.14952-0.27143 0.23428-0.43619 0.18667l-0.46952-0.13333zm-7.7095-5.0067c0.0581 0.12571 0.15048 0.23143 0.26095 0.30667l2.0743 1.3971c0.11238 0.07714 0.2419 0.11714 0.38571 0.12762l0.47333 0.02572-0.31048-0.3581c-0.11619-0.12952-0.12762-0.32571-0.02762-0.47238 0.09905-0.14762 0.29048-0.21143 0.45333-0.15619l0.44286 0.15048-0.19905-0.42286c-0.06-0.12571-0.14952-0.23238-0.26286-0.30857l-2.081-1.3962c-0.10857-0.07714-0.24286-0.1219-0.38286-0.12762l-0.47238-0.02476 0.31048 0.35333c0.11333 0.13238 0.12571 0.32667 0.02762 0.47524-0.0981 0.14571-0.28762 0.21428-0.45143 0.15619l-0.44667-0.15143zm-8.0162-3.9676c0.08857 0.11048 0.19524 0.18476 0.32 0.23048l0.97333 0.37143c0.10286 0.04095 0.17143 0.06857 0.17429 0.06952l0.96095 0.39905c0.0981 0.04286 0.16286 0.06952 0.16952 0.07429 0.09524 0.04 0.19619 0.06381 0.30286 0.06381 0.03048 0 0.06381-0.0029 0.09619-0.0048l0.46286-0.05619-0.35905-0.29524c-0.13619-0.11238-0.1781-0.30476-0.11048-0.46857 0.07143-0.16095 0.2419-0.25714 0.41714-0.22762l0.4781 0.077179-0.28571-0.39048c-0.08667-0.11333-0.19048-0.20286-0.31143-0.25619 0 0-0.07524-0.03714-0.19143-0.08381l-0.98667-0.41048s-0.07714-0.03048-0.19429-0.07429l-1.001-0.38381c-0.12762-0.04857-0.27429-0.05905-0.41048-0.03048l-0.47619 0.08476 0.40286 0.27333c0.14476 0.1 0.2019 0.28095 0.13619 0.45238-0.06095 0.16-0.20952 0.2619-0.37619 0.2619l-0.48952-0.03524zm-8.7171-2.3867c0.10095 0.08952 0.22286 0.15333 0.35619 0.18286l0.60762 0.13143c0.30286 0.06286 0.60095 0.13048 0.60381 0.13048l0.60381 0.13619c0.15143 0.03809 0.3 0.07143 0.41048 0.1l0.19048 0.04762c0.05619 0.01524 0.11619 0.02 0.17524 0.02 0.07429 0 0.15143-0.0086 0.22571-0.03048l0.45143-0.13905-0.41238-0.22667c-0.15143-0.08191-0.22572-0.26571-0.18476-0.44095 0.0419-0.17143 0.19238-0.29524 0.36857-0.2981l0.47905-0.0067-0.3419-0.33524c-0.1-0.0981-0.22286-0.16762-0.35714-0.2l-0.18667-0.04476c-0.11905-0.02952-0.27429-0.06762-0.42857-0.10381l-0.61619-0.1381s-0.30857-0.07429-0.62-0.13905l-0.61619-0.12857c-0.13048-0.03048-0.26762-0.02286-0.40762 0.02191l-0.46381 0.15619 0.44095 0.21333c0.15333 0.08 0.24 0.25238 0.2019 0.43048-0.03905 0.17524-0.1819 0.3-0.36 0.31619l-0.46381 0.03333zm-8.9714-1.2895c0.11238 0.07905 0.24381 0.13429 0.3781 0.1419l2.4619 0.26381c0.02952 0.0038 0.06 0.0057 0.08857 0.0057 0.10857 0 0.20952-0.02095 0.30952-0.06381l0.42952-0.18857-0.43143-0.17905c-0.16095-0.06286-0.25905-0.23905-0.2381-0.41048 0.02-0.18095 0.15714-0.31905 0.32952-0.34381l0.47619-0.06191-0.3781-0.29143c-0.11238-0.08857-0.24095-0.13905-0.37714-0.15619l-2.5181-0.27332c-0.13429-0.0076-0.26762 0.01333-0.39905 0.07524l-0.43714 0.20571 0.45524 0.16c0.16286 0.06 0.26762 0.22476 0.25238 0.40571-0.018095 0.17429-0.14857 0.32286-0.32095 0.35238l-0.4581 0.08476zm2.9029 1.3981h0.06571c-0.01524 0-0.02762 0.0029-0.0419 0.0029-0.0067 0-0.01524-0.0029-0.02381-0.0029zm-1.3971 0.32 0.55143 0.06 0.60762 0.07333c0.08286 0.01429 0.17333 0.01714 0.2619 0.01714 0.73238 0 1.419-0.3781 1.8352-0.98667 0.05524 0.0067 0.12095 0.0181 0.18952 0.02571 0.2819 0.04286 0.6419 0.09905 1.0229 0.16l0.09048 0.01524c0.26 0.04286 0.52476 0.09048 0.76095 0.12857 0.12381 0.0219 0.24095 0.04 0.34476 0.05809l0.19048 0.03524c0.08857 0.33143 0.25238 0.63619 0.4819 0.89905 0.31524 0.36095 0.72381 0.60095 1.1914 0.69619l0.59143 0.12762c0.27143 0.05524 0.5381 0.1181 0.58857 0.13238h0.0038l0.04667 0.01048 0.54381 0.12381c0.16762 0.03809 0.30476 0.07143 0.39905 0.09333l0.18857 0.04572c0.01714 0.0048 0.03809 0.0086 0.05619 0.01333 0.19905 0.40476 0.40762 0.80952 0.63048 1.2038 0.27048 0.47333 0.55905 0.9381 0.85905 1.3867-0.36571 0.16286-0.8 0.32762-1.3267 0.5-0.69238 0.22381-1.3829 0.3181-2.0571 0.31429-2.0133-0.01524-3.8819-0.89238-5.2305-1.7562-1.9476-1.239-3.2686-2.7143-3.28-2.7305l-0.02667-0.02857 0.02-0.03619c0.0038-0.0076 0.14286-0.24095 0.46476-0.5819zm13.667 7.159c0.52286 0.56857 1.0771 1.1133 1.6552 1.6257 0.91143 0.79714 1.9048 1.5457 2.9676 2.2267-2.9971-0.31524-6.0533-1.7-6.0895-1.7181l-0.05714-0.02571 0.03048-0.05619c0.01143-0.02 0.57524-0.99238 1.4933-2.0524zm-2.7924-5.4352c0.46667-0.1019 0.88857-0.35333 1.2105-0.72571 0.05238 0.01333 0.11238 0.02952 0.1781 0.04952 0.10381 0.03238 0.22 0.06095 0.34381 0.09905 0.22667 0.06381 0.48286 0.13524 0.72857 0.20762 0.14095 0.04857 0.28095 0.09238 0.41714 0.13333 0.24095 0.06857 0.46952 0.13905 0.64857 0.20095l0.18571 0.06571c0.04286 0.33048 0.16286 0.65048 0.34667 0.94381 0.25619 0.40476 0.62381 0.7 1.0638 0.85619l0.55619 0.21619 0.13429 0.04952 0.25333 0.0981c0.09524 0.03714 0.15714 0.06191 0.15714 0.06191 0.0029 0.0038 0.2819 0.11524 0.5581 0.23238l0.16381 0.06476 0.21714 0.09143c0.08857 0.03905 0.14952 0.06667 0.14952 0.06667l0.0019 0.0038h0.0076c0.26476 0.11524 0.54667 0.1819 0.8381 0.1819 0.17238 0 0.34667-0.02571 0.52-0.06857 0.33048-0.07429 0.63905-0.22572 0.90286-0.43714l0.16476 0.08286 0.74476 0.39048 0.23333 0.12095c0.2219 0.12857 0.44572 0.25619 0.64476 0.37143 0.11333 0.06571 0.22095 0.12476 0.31524 0.18095h0.0038l0.0029 0.0019c0.04667 0.02952 0.09429 0.05619 0.13714 0.08286-0.03905 0.33714-0.0076 0.68 0.09714 0.99524 0.15238 0.45143 0.45238 0.84381 0.84762 1.1057l1.0324 0.69143 1.0343 0.69905c0.36476 0.24381 0.79143 0.37333 1.2314 0.37333 0.39524 0 0.78476-0.10667 1.1238-0.3019l0.16952 0.11333 0.04095 0.02476c0.25905 0.16857 0.58952 0.38381 0.92286 0.60095l0.0029 0.0038h0.0029c0.35143 0.22381 0.7019 0.44667 0.96857 0.61429v0.0019h0.0038c0.06571 0.04381 0.12476 0.07619 0.17714 0.11143-0.03238 0.35428 0.02476 0.71143 0.1619 1.0362 0.19048 0.45429 0.52571 0.83429 0.94857 1.0743l0.0029 0.0029h0.0038l0.57048 0.31905c0.05238 0.02952 0.10571 0.06095 0.15714 0.08571 0.08952 0.05048 0.17524 0.0981 0.24762 0.13619l0.18 0.09429 0.58381 0.30476c0.15428 0.08095 0.31238 0.1581 0.4181 0.20857 0.11143 0.05238 0.18857 0.08952 0.18857 0.08952 0.22476 0.10952 0.46667 0.18286 0.70952 0.21524 0.08667 0.01238 0.17333 0.01905 0.26286 0.01905 0.15429 0 0.31143-0.01905 0.46952-0.05143 0.3619-0.08 0.68952-0.2381 0.96381-0.46571 0.05905 0.02286 0.12762 0.04857 0.20476 0.07905 0.14476 0.05809 0.3181 0.12762 0.50572 0.2019l0.0029 0.0019h0.0019c0.12476 0.04857 0.25333 0.09143 0.37905 0.13905 0.07143 0.02286 0.1419 0.04571 0.21429 0.07333h0.0057l0.0029 0.0029c0.06762 0.02286 0.14 0.04667 0.20667 0.07524 0.12857 0.04286 0.26286 0.09238 0.39333 0.13143l0.22857 0.07048 0.29524 0.09238c0.07714 0.02191 0.15143 0.04286 0.21429 0.06476 0.07143 0.35238 0.23143 0.67619 0.47619 0.96095 0.17143 0.20572 0.36286 0.36857 0.56381 0.48381 0.22095 0.12762 0.4619 0.21238 0.71143 0.26571l0.20762 0.04286c0.03048 0.0057 0.05619 0.01143 0.08667 0.01619 0.11238 0.02667 0.25238 0.05429 0.3981 0.07333l0.66667 0.10286s0.07905 0.01429 0.20476 0.03048c0.11905 0.02286 0.2581 0.03619 0.40667 0.05333l0.08095 0.0038 0.67238 0.07429c0.07429 0.0038 0.14857 0.0076 0.22286 0.0076 0.18095 0 0.36857-0.02381 0.55619-0.07143 0.24095-0.06286 0.46286-0.1619 0.66952-0.29048 0.20667-0.1381 0.38571-0.3 0.52857-0.48381 0.07619-0.10286 0.14286-0.20381 0.2019-0.31333h0.51125c0.06762 0 0.16952 0 0.28095-0.01048 0.19143-0.0076 0.40667-0.0181 0.6181-0.03048 0.04952-9.52e-4 0.09333-9.52e-4 0.1419-0.0057-1.2038 0.57524-2.3333 1.2981-3.4095 2.1371-1.28 0.99905-2.4629 2.1019-3.5276 3.3276-0.17048 0.19333-0.34857 0.38476-0.52095 0.58095-0.23429 0.27333-0.35714 0.26952-0.59429-0.01143-1.3238-1.5457-2.7771-2.9543-4.4067-4.18-2.0352-1.5305-4.2819-2.5571-6.7743-3.1143-2.9457-0.65048-5.7562-1.6971-8.361-3.241-2.3057-1.3724-4.361-3.0467-6.061-5.1343-0.99905-1.2267-1.84-2.5438-2.56-3.9314zm53.093 7.9095c0.04857-0.03333 0.09524-0.07143 0.14667-0.10667 0.0819-0.05905 0.16857-0.1219 0.25143-0.18381l0.0038-9.53e-4h0.0029c0.05905-0.04667 0.1181-0.09428 0.18095-0.1419 0.02381-0.02095 0.04952-0.04286 0.07714-0.0619 0.28667-0.2181 0.56286-0.45333 0.78476-0.64572 0.04762-0.03905 0.09238-0.07714 0.13714-0.11333l0.0067-0.0057 0.0048-0.0057 0.16667-0.14952c0.04857 0.01429 0.09905 0.03048 0.14667 0.04476 0.39619 0.54952 0.6181 0.93714 0.62476 0.94857l0.03143 0.05619-0.05619 0.02571c-0.02286 0.0095-1.3029 0.58952-3.0114 1.0867 0.01143-0.13619 0.01143-0.26667 0-0.40095l0.18381-0.1219c0.10381-0.06857 0.20857-0.1419 0.3181-0.22381zm6.0895-6.8581c0.06286-0.10857 0.12572-0.22572 0.19143-0.34857 0.02286-0.04857 0.05143-0.09905 0.07714-0.14381l0.14476-0.27238 0.0038-0.0076 0.0029-0.0086 0.08286-0.16762 0.06-0.11619c0.1019-0.20476 0.19238-0.39143 0.27619-0.58 0.02952-0.05809 0.05714-0.1219 0.08286-0.18 0.05333-0.11524 0.10476-0.22572 0.14667-0.32572l0.08571-0.20286c0.36-0.03048 0.70762-0.15238 1.0171-0.3619h0.0057c0.42286-0.28762 0.73333-0.71143 0.88286-1.1886 0.03048-0.09143 0.12286-0.37714 0.2019-0.66571 0.06952-0.23714 0.12762-0.46476 0.1619-0.59143 0.42762 0.06667 0.88476 0.15619 1.3638 0.28762 3.2133 0.84286 4.2895 2.6629 4.2981 2.68l0.02 0.03619-0.02762 0.02857c-0.01429 0.01619-1.3305 1.4914-3.28 2.7305-1.3495 0.86381-3.22 1.741-5.2286 1.7562-0.19429 9.52e-4 -0.38667-0.0076-0.58381-0.0219 0.0057-0.0095 0.01238-0.0181 0.01429-0.02762l0.0038-0.0029v-0.0057c0.05238-0.11238 0.0981-0.23238 0.13048-0.34762 0.07143-0.25905 0.09905-0.50476 0.08381-0.73905-0.020966-0.3733-0.13335-0.72187-0.32668-1.0266zm3.361-14.378-0.0029-0.0095-0.0038-0.0086-0.09238-0.23048-0.04762-0.1181-0.04667-0.11714-0.0067-0.01048-0.0057-0.01619c-0.03809-0.08381-0.08286-0.17524-0.12381-0.26667-0.01905-0.03333-0.03048-0.06095-0.04571-0.09048-0.02857-0.06286-0.0619-0.13048-0.0981-0.19428l-0.0029-0.0038v-0.0076l-0.10952-0.19143-0.02-0.03714c-0.08095-0.13714-0.13143-0.22667-0.13143-0.22667l-0.0067-0.01429-0.0086-0.01333-0.14857-0.2181-0.08667-0.12667-0.06762-0.1019-0.0057-0.0067-0.0067-0.01333c-0.05048-0.06762-0.10762-0.13905-0.16381-0.20381l-0.03809-0.05524-0.0067-0.0029v-0.0019c-0.02381-0.02857-0.04095-0.05143-0.06286-0.07714-0.04762-0.06095-0.1-0.13143-0.16571-0.19524l-0.0981-0.10667-0.09143-0.09619-0.04952-0.04952-0.09333-0.09714-0.0095-0.01333-0.01333-0.01048-0.05524-0.05048c-0.12286-0.10952-0.24762-0.20667-0.37714-0.29619-0.1381-0.09619-0.28286-0.15905-0.43143-0.22571-0.25905-0.11048-0.56-0.17429-0.88952-0.17905h-0.01429c-0.04762 0-0.09524 0.0029-0.14381 0.0048 1.3562-1.2171 2.6857-2.4686 4.04-3.6924 0.50952-0.4581 1.001-0.29143 1.141 0.39238 0.08857 0.44095 0.10381 0.9019 0.11524 1.3571 0.05428 2.1933 0.0619 4.3848-0.24 6.5619-0.07524 0.54572-0.20857 1.0857-0.33714 1.6238-0.04286 0.18571-0.1181 0.38-0.23429 0.52571-0.08 0.11143-0.24952 0.19143-0.38286 0.19714-0.06667 0-0.17048-0.19714-0.19619-0.31333-0.08095-0.38381-0.11048-0.77905-0.20381-1.159 0.03143-0.06286 0.06095-0.1219 0.08476-0.18857 0.08667-0.22572 0.12952-0.48095 0.13619-0.7819v-0.01048c0-0.27238-0.05333-0.55238-0.15143-0.83333zm4.8133 9.7429c-0.88-0.17333-1.4181-0.49048-1.941-0.8-0.66-0.38857-1.2933-0.76572-2.5752-0.72857 0.04762-0.23238 0.08-0.42 0.08667-0.44857 0.02381-0.12762 0.03619-0.25524 0.03714-0.3819l0.0048-0.0057v-0.0048c0-0.12952-0.01333-0.25619-0.02952-0.3781-0.01524-0.08952-0.03333-0.17524-0.05714-0.2619 0.38572 0.01143 0.82095-0.05333 1.2981-0.21905 1.1962-0.41619 1.4314-0.89333 1.6219-1.2771 0.26476-0.54667 0.42476-0.87143 2.8305-0.47524 1.3057 0.21524 1.7848 0.81333 1.9533 1.2781 0.27238 0.73333-0.0057 1.7067-0.71905 2.539-0.73429 0.85714-1.719 1.3133-2.5105 1.1638z" fill="#f2f2f2"/>
</svg>